<svg width="224" height="48" viewBox="0 0 224 48" fill="none" xmlns="http://www.w3.org/2000/svg">
<circle cx="24" cy="24" r="23" stroke="#18191F" stroke-width="2"/>
<path fill-rule="evenodd" clip-rule="evenodd" d="M20.2274 17.2007C20.1296 17.1348 20.0001 17.1247 19.8918 17.1754C19.7838 17.226 19.7156 17.3289 19.7156 17.4413V30.5595C19.7156 30.6719 19.7838 30.7747 19.8918 30.8254C19.9374 30.8469 19.9876 30.8576 20.0371 30.8576C20.1042 30.8576 20.1711 30.8382 20.2274 30.8001L29.8702 24.241C29.9528 24.1846 30.0014 24.0952 30.0014 24.0004C30.0014 23.9056 29.9528 23.8161 29.8702 23.7598L20.2274 17.2007Z" stroke="#18191F" stroke-width="2"/>
<line x1="56" y1="23" x2="136" y2="23" stroke="#18191F" stroke-width="2"/>
<path d="M148.494 29C151.597 29 153.476 27.081 153.476 23.8991C153.476 20.7273 151.597 18.8182 148.524 18.8182H144.885V29H148.494ZM147.038 27.1555V20.6626H148.41C150.319 20.6626 151.328 21.6371 151.328 23.8991C151.328 26.1712 150.319 27.1555 148.405 27.1555H147.038ZM158.223 18.8182H156.07V29H158.223V18.8182ZM166.518 21.7464H168.581C168.551 19.9318 167.06 18.679 164.793 18.679C162.56 18.679 160.925 19.9119 160.935 21.7614C160.93 23.2628 161.989 24.1229 163.709 24.5355L164.817 24.8139C165.926 25.0824 166.543 25.4006 166.548 26.0866C166.543 26.8324 165.837 27.3395 164.743 27.3395C163.624 27.3395 162.819 26.8224 162.749 25.8033H160.666C160.721 28.0057 162.297 29.1442 164.768 29.1442C167.254 29.1442 168.715 27.956 168.72 26.0916C168.715 24.3963 167.438 23.4964 165.668 23.0987L164.753 22.88C163.868 22.6761 163.127 22.348 163.142 21.6172C163.142 20.9609 163.724 20.4787 164.778 20.4787C165.807 20.4787 166.438 20.946 166.518 21.7464ZM180.152 22.3828C179.868 20.0312 178.089 18.679 175.732 18.679C173.042 18.679 170.989 20.5781 170.989 23.9091C170.989 27.2301 173.008 29.1392 175.732 29.1392C178.342 29.1392 179.918 27.4041 180.152 25.5298L177.974 25.5199C177.77 26.6087 176.915 27.2351 175.767 27.2351C174.221 27.2351 173.172 26.0866 173.172 23.9091C173.172 21.7912 174.206 20.5831 175.782 20.5831C176.96 20.5831 177.81 21.2642 177.974 22.3828H180.152ZM192.052 23.9091C192.052 20.5781 189.984 18.679 187.284 18.679C184.57 18.679 182.517 20.5781 182.517 23.9091C182.517 27.2251 184.57 29.1392 187.284 29.1392C189.984 29.1392 192.052 27.2401 192.052 23.9091ZM189.869 23.9091C189.869 26.0668 188.845 27.2351 187.284 27.2351C185.718 27.2351 184.699 26.0668 184.699 23.9091C184.699 21.7514 185.718 20.5831 187.284 20.5831C188.845 20.5831 189.869 21.7514 189.869 23.9091ZM195.912 18.8182H193.521L197.036 29H199.81L203.32 18.8182H200.933L198.467 26.554H198.373L195.912 18.8182ZM205.545 29H212.426V27.2251H207.698V24.794H212.053V23.0192H207.698V20.593H212.406V18.8182H205.545V29ZM215.117 29H217.27V25.3906H218.841L220.77 29H223.146L220.984 25.0426C222.142 24.5455 222.784 23.5362 222.784 22.1442C222.784 20.1207 221.446 18.8182 219.134 18.8182H215.117V29ZM217.27 23.6605V20.5781H218.722C219.965 20.5781 220.566 21.13 220.566 22.1442C220.566 23.1534 219.965 23.6605 218.732 23.6605H217.27Z" fill="#18191F"/>
</svg>
